# xmcd
#
# Track frame offsets: 
#        150
#        14180
#        30702
#        46545
#        59980
#        76680
#        90617
#        106857
#        120710
#        137177
#        157312
#        172297
#        186175
#        205062
#        217877
#        229797
#        246410
#        263935
#
# Disc length: 3765 seconds
#
# Revision: 4
# Processed by: cddbd v1.5.2PL0 Copyright (c) Steve Scherf et al.
# Submitted via: ExactAudioCopy v0.99pb5
#
DISCID=080eb312
DTITLE=Various Artist - The History Of Country Music - The Eighties - Volume 
DTITLE=2 - CD 2
DYEAR=1993
DGENRE=Country
TTITLE0=Merle Haggard and Janie Fricke - Natural high
TTITLE1=Oak Ridge Boys - Elvira
TTITLE2=Willie Nelson - Alway on my mind
TTITLE3=Ricky Skaggs - Crying my heart out over you
TTITLE4=Juice Newton - Hurt
TTITLE5=Ricky van Shelton - I'll leave this world loving you
TTITLE6=Alabama - The closer you get
TTITLE7=Steve Wariner - Lynda
TTITLE8=Waylon Jennings - Rose in paradise
TTITLE9=Rosanne Cash - Blue moon with heartache
TTITLE10=Sylvia - Nobody
TTITLE11=Ronnie McDowell - You're gonna ruin my bad reputation
TTITLE12=Keith Whitley - Don't close your eyes
TTITLE13=Lacy J. Dalton - Dream baby (how long must I dream)
TTITLE14=John Schneider - I've been around enough to know
TTITLE15=Judds - Cry myself to sleep
TTITLE16=Michael Johnson - The moon is still over her shoulder
TTITLE17=K.T. Oslin - Do ya'
EXTD=YEAR: 1993
EXTT0=
EXTT1=
EXTT2=
EXTT3=
EXTT4=
EXTT5=
EXTT6=
EXTT7=
EXTT8=
EXTT9=
EXTT10=
EXTT11=
EXTT12=
EXTT13=
EXTT14=
EXTT15=
EXTT16=
EXTT17=
PLAYORDER=
